<?xml version="1.0" encoding="UTF-8"?>
<svg id="_レイヤー_2" data-name="レイヤー 2" xmlns="http://www.w3.org/2000/svg" viewBox="0 0 136.00066 52.52821">
  <defs>
    <style>
      .cls-1 {
        fill: #fff;
        stroke-width: 0px;
      }
    </style>
  </defs>
  <g id="_レイヤー_3" data-name=" レイヤー 3">
    <path class="cls-1" d="M121.03812,28.26344c.50378,2.48171,2.76131,4.12107,5.55122,4.12107,4.81392,0,8.31396-4.65815,9.41132-8.47636l-1.41637-.29988c-1.04152,3.69172-4.13989,6.55266-7.01503,6.55266-2.86175,0-3.36958-1.88092-3.36958-3.05997,3.92458-.7836,7.14076-2.05219,7.14076-5.21139,0-1.43619-.98322-2.8697-3.59131-2.8697-3.54007,0-6.08587,3.16108-6.73032,6.18346-1.34718,3.2091-4.33835,5.75906-7.04394,5.75906-3.26311,0-3.60624-2.26423-3.60624-3.27119,3.42017-.61812,7.65529-2.01395,7.65529-5.46857,0-1.84388-1.24866-3.20067-3.85596-3.20067-4.0752,0-6.69866,3.71292-7.27777,6.98332-1.50065,3.36913-4.62137,5.89467-7.5356,5.89467-3.36493,0-3.92322-2.18484-3.92322-3.58922,3.26396-.61982,8.25033-1.98957,8.25033-5.85342,0-1.77188-1.10218-3.43535-4.11839-3.43535-4.80648,0-7.61449,4.77276-7.89165,8.08704-.66749.10127-1.3029.15768-1.84863.15768-2.27035,0-1.99354-1.73147-1.63762-3.56253.51175-2.63272-.90561-4.6822-3.65758-4.6822-3.14974,0-5.47577,3.11367-6.77049,6.19345.73172-3.7644.10001-6.0742-4.43013-6.0742-2.0726,0-4.4346.65007-6.98124,1.64992.00436.00523.92158-4.75261.92158-4.75261,1.14146-5.86963,2.68017-7.10643,4.59881-7.10643,1.51986,0,2.53009.90801,3.75915,2.4968l.66075-3.41315c-1.51198-.88332-2.96959-1.23724-4.50494-1.23724-4.52801,0-7.54489,3.2926-8.80174,9.75623l-1.18413,6.10632c-4.12748,1.63814-9.37056,3.33816-17.62105,3.71332l-.38224,1.96503c8.07693-.31412,13.39253-1.84372,17.56242-3.42243,0,0-2.25234,11.58703-2.25234,11.58773-1.10392,5.67875-2.59036,7.11147-4.5774,7.11147-1.84829,0-2.95763-1.47035-3.75915-2.4968-.11101.5734-.66075,3.41315-.66075,3.41315,1.01214.56702,2.39585,1.23724,4.60072,1.23724,4.17004,0,7.37566-3.02767,8.68356-9.7556l2.51363-12.93212c2.52923-1.0427,5.17259-1.87813,6.49459-1.87813,2.13129,0,2.52259.72301,1.96908,3.61073l-2.13071,10.9214,4.03876-.2742,1.07985-5.54792c.61321-3.15469,2.7842-7.68928,5.57511-7.68928,1.40584,0,1.71142,1.0718,1.44875,2.42313-.68228,3.51004,1.39889,4.40612,3.85101,4.40612.93597,0,2.07306-.01298,3.45466-.21119.14863,2.12618,1.85668,5.58968,6.54001,5.58968,3.62656,0,6.71915-2.38477,8.76949-5.40085.42807,1.9608,2.2517,4.34275,5.93227,4.34275,3.32885,0,6.2055-2.31807,8.11242-5.09083h-.00004ZM127.60457,20.70879c.6114,0,1.1545.42975,1.1545,1.36268,0,2.00644-2.51733,2.97557-4.48213,3.41525,0-1.53435,1.65152-4.77793,3.32764-4.77793ZM114.01281,20.84125c.65645,0,1.2339.43895,1.2339,1.47736,0,2.09423-2.69214,3.162-4.7955,3.63301,0-1.64753,1.82645-5.11037,3.5616-5.11037ZM99.39588,20.91715c.66284,0,1.36428.43239,1.36428,1.64513,0,2.26997-2.95365,3.43497-5.24341,3.94288,0-1.92481,2.01822-5.58801,3.87913-5.58801Z"/>
    <path class="cls-1" d="M31.75365,24.11298c-4.26172,0-8.42242-.43091-12.44183-1.25153,9.11395-4.39478,15.95007-12.76544,18.25793-22.86145L12.08715,19.61176c-1.4248,1.09656-1.7995.7215-3.15271.7215-2.15295,0-4.18817.85919-5.64807,2.27252-.56299.54517-.63531.69666-1.50555.90802l-1.78082.43262,3.38971.74384c2.70361.59332,3.31866,1.03448,4.80682,2.96631l19.15845,24.87164c.49219-7.32141-1.71362-14.59979-6.71735-20.42419,2.10724-.01392,4.05066-.38336,5.92712-1.03076,1.55682-.53729,1.94769-.65363,3.91113-.65363h10.15448c.13647-.68054-.11951-.88263-1.12109-1.02234l-7.85461-1.09283c.34808-.24817.82617-.67651,1.18677-.97302.7782-.6405.99335-.83459,2.15167-1.10925,2.19629-.52069,3.92035-1.05737,6.13129-1.83185.8551-.2995.7207-.61389.89819-1.1424-3.89935.61487-6.43036.86505-10.26893.86505ZM8.14037,24.60272c-.69769,0-1.26324-.56555-1.26324-1.26318s.56555-1.26312,1.26324-1.26312c.69739,0,1.26294.56549,1.26294,1.26312s-.56555,1.26318-1.26294,1.26318ZM20.4591,30.56104c-4.45288,0-8.50226-1.72815-11.51392-4.55029,2.70312-.82819,6.1767-.93512,10.73651-.453,4.18915.44293,7.59631,1.12939,11.51361,1.13818-2.91467,2.41412-6.65607,3.86511-10.7362,3.86511Z"/>
  </g>
</svg>