<?xml version="1.0" encoding="UTF-8"?>
<svg id="_レイヤー_1" data-name="レイヤー_1" xmlns="http://www.w3.org/2000/svg" version="1.1" viewBox="0 0 536 88">
  <!-- Generator: Adobe Illustrator 29.2.1, SVG Export Plug-In . SVG Version: 2.1.0 Build 116)  -->
  <defs>
    <style>
      .st0 {
        fill: #fff;
      }

      .st1 {
        fill: #73a5ff;
      }

      .st2 {
        fill: #2864f0;
      }
    </style>
  </defs>
  <g>
    <g>
      <path class="st1" d="M23.1573762,41.6201649l6.9937476,4.7173423,1.7241965-2.5562265-11.5192346-7.7698219-2.652038,3.93183c-.3609224.5350924-.8357979.9989713-1.4168029,1.2800799-1.190649.5760734-2.5108766.4431088-3.5265537-.241974-.1764102-.1189902-.343644-.2540615-.4995207-.4059702-1.2086855-1.177168-1.3658678-3.0993667-.3736805-4.570345l3.1732443-4.7045282-.2600712-.1754202c-4.5326357-3.0573014-10.7502356-1.691548-13.5531894,3.1058294-2.5578694,4.3779049-1.027181,10.0257203,3.1763542,12.8610403l14.6176474,9.8597266c1.4994704,1.0114055,3.5349375.6157507,4.546343-.8837197l.0000018-.0000027-7.0978334-4.7875491c-.4293542-.2896031-.5426996-.8727146-.2530965-1.3020688s.8727146-.5426996,1.3020688-.2530965l7.0978334,4.7875491,1.7081935-2.532501-7.0457905-4.7524457c-.4293542-.2896031-.5426996-.8727146-.2530965-1.3020688s.8727146-.5426996,1.3020688-.2530965l7.0457905,4.7524457,1.7081935-2.532501-6.9937476-4.7173423c-.4293542-.2896031-.5426996-.8727146-.2530965-1.3020688s.8727146-.5426996,1.3020688-.2530965Z"/>
      <path class="st1" d="M13.56991,39.2311078c.3631901.3563285.8338019.5212056,1.3255548.4698406.4844461-.0496123.9180527-.309455,1.1901041-.7127877l3.2398375-4.8032567c.2896031-.4293542.8727146-.5426996,1.3020688-.2530965l12.2968173,8.294308.5549435-.8227376c2.8666058-4.2499178,2.0672984-10.1095345-2.0429096-13.1725378-4.3882522-3.2705902-10.5659155-2.1826982-13.5912609,2.3025608l-4.4230287,6.5574097c-.4509604.7019035-.3923849,1.6149826.1478732,2.1402973Z"/>
    </g>
    <g>
      <path class="st2" d="M85.6802669,40.3962651c-7.1396872.0000018-14.1100776-.7219252-20.8437105-2.0966549,15.2685131-7.3625376,26.72097-21.3858747,30.5872937-38.2996102l-42.690732,32.8553655c-2.3869135,1.837022-3.0146871,1.2087653-5.2817182,1.2087659-3.6067967.0000009-7.0163665,1.4394011-9.462147,3.8071408-.9431638.9132473-1.0643356,1.1670315-2.5222651,1.5212017l-2.98332.7247224,5.67875,1.246146c4.529336.9939734,5.5597267,1.7330356,8.0527743,4.9693874l32.0959463,41.6672703c.8245672-12.265483-2.8707481-24.4589385-11.2535236-34.2164946,3.5303123-.0233114,6.7860542-.642277,9.9296475-1.726809,2.6082028-.9000885,3.2630464-1.0950594,6.5523041-1.0950602l17.0117467-.0000042c.2285935-1.1400684-.2002347-1.4786083-1.8781644-1.7126264l-13.1587395-1.8308414c.5830858-.4157765,1.3840231-1.1333548,1.9881636-1.6301274,1.3036715-1.0729837,1.6641793-1.3981498,3.6046478-1.8582918,3.6794137-.8723202,6.5677624-1.771442,10.2716681-3.0688842,1.4325779-.5017679,1.2074216-1.0284573,1.5047651-1.9138284-6.5325385,1.0300699-10.7726841,1.4492311-17.2033869,1.4492327Z"/>
      <path class="st0" d="M46.1210893,41.2166558c-1.1687499.0000003-2.1162111-.9474067-2.1162114-2.1161566-.0000003-1.1686962.9474604-2.1161036,2.1162103-2.1161039,1.1683203-.0000003,2.1157814.9474067,2.1157817,2.1161029.0000003,1.1687499-.9474604,2.1161574-2.1157806,2.1161577Z"/>
      <path class="st0" d="M66.7585518,51.1985593c-7.4598043.0000019-14.243711-2.8950696-19.2891025-7.6229734,4.528476-1.387462,10.3477335-1.5665894,17.9867177-.7589937,7.0180858.7421222,12.7260545,1.8920719,19.2886714,1.9068408-4.8829675,4.0443272-11.1508182,6.4751245-17.9862866,6.4751262Z"/>
    </g>
    <path class="st2" d="M262.9118918,40.9382508c-2.0032007,7.3204696-8.2963961,12.5057171-13.5824053,12.5057171-5.6374931,0-6.572492-3.6602885-6.572492-6.0130395,5.4673371-1.0383386,13.8204518-3.3330819,13.8204518-9.8062087,0-2.968385-1.8459352-5.7552273-6.8981947-5.7552273-7.2101474,0-11.7252982,6.4064179-12.9267029,11.7333548-2.5205438,5.6266435-7.7343655,9.8411208-12.6061564,9.8411208-5.6374931,0-6.572492-3.6602885-6.572492-6.0130395,5.4681964-1.0383386,13.8213112-3.3330819,13.8213112-9.8062087,0-2.968385-1.8459352-5.7552273-6.8999134-5.7552273-7.2049912,0-11.7184232,6.3986836-12.9241248,11.7236868l-.0008594-.0244922c-2.5136688,5.6442607-7.7420999,9.8752809-12.6242033,9.8752809-5.6366337,0-6.572492-3.6602885-6.572492-6.0130395,5.4681964-1.0383386,13.8221706-3.3330819,13.8221706-9.8062087,0-2.968385-1.8467946-5.7552273-6.8999134-5.7552273-8.0514745,0-12.7565469,7.9958301-13.2206088,13.5482451-1.1189049.1696189-2.1828098.2640426-3.0971837.2640426-3.8035891,0-3.3403865-2.9007093-2.743981-5.9682446.8576552-4.4105219-1.5159356-7.8440431-6.1273363-7.8440431-5.276556,0-9.1729575,5.2163999-11.3420174,10.3758662l-.0146094-.0021484c1.2254673-6.3065157.1675779-10.1760618-7.4215534-10.1760618-3.4727301,0-7.4292878,1.0890416-11.6960794,2.7640689.0077344.0088086,1.544295-7.9619922,1.544295-7.9619922,1.912107-9.833279,4.4902289-11.905337,7.7042874-11.905337,2.546325,0,4.2384323,1.5211993,6.2974923,4.1828953l1.1068736-5.7180594c-2.532575-1.4797345-4.9749158-2.0727025-7.547022-2.0727025-7.5856938,0-12.639672,5.5161065-14.7451382,16.3445405l-1.9842944,10.2297726c-6.9145228,2.7444107-15.6981839,5.592376-29.5194951,6.2209006l-.641093,3.2920468c13.5317022-.5262591,22.436535-3.0888048,29.4223859-5.7336356,0,0-3.773511,19.4116462-3.773511,19.4128278-1.8493727,9.5135919-4.3398384,11.9137159-7.6681937,11.9137159-3.0963243,0-4.9551502-2.4631806-6.2974923-4.1827879-.1864841.9605652-1.1068736,5.717952-1.1068736,5.717952,1.6955448.9499305,4.0132763,2.07281,7.7068656,2.07281,6.9867102,0,12.356938-5.0722399,14.5474822-16.3434663l4.2117917-21.6650321c4.2367136-1.7468924,8.6650675-3.1463829,10.8796742-3.1463829,3.5706988,0,4.2264011,1.2111802,3.2991366,6.0489184l-3.0127728,15.4302694,6.6762839.0000047,1.3560921-6.8853041c1.0278112-5.2849349,4.6646818-12.8816932,9.3396761-12.8816932,2.355544,0,2.8677309,1.7955544,2.4277314,4.0594677-1.1429674,5.8802662,2.3435128,7.3814851,6.4513202,7.3814851,1.5683575,0,3.4735895-.0218066,5.7870242-.3538472.2500778,3.5619976,3.1109337,9.3643831,10.9570178,9.3643831,5.8806959,0,10.9071742-3.7533157,14.3395137-8.5752629.586093,3.5671538,3.5698394,8.5752629,10.860768,8.5752629,5.8729616,0,10.8942835-3.7446146,14.3266231-8.5576458.5921087,3.5659722,3.5767144,8.5576458,10.8564711,8.5576458,8.2413962,0,15.3552937-7.2537607,18.1173216-16.1553709l-2.6408561-.559345ZM249.3982365,35.0445569c1.1103111,0,2.2850753.7243448,2.2850753,2.7560123,0,3.8029446-4.9474158,5.7546902-8.7836611,6.6055779,0-3.2245859,3.3807771-9.3615901,6.4985858-9.3615901ZM224.2151423,35.0445569c1.1111705,0,2.2850753.7243448,2.2850753,2.7560123,0,3.8029446-4.9474158,5.7546902-8.7836611,6.6055779,0-3.2245859,3.3807771-9.3615901,6.4985858-9.3615901ZM199.0148606,35.0445569c1.1111705,0,2.2859347.7243448,2.2859347,2.7560123,0,3.8029446-4.9482752,5.7546902-8.7845205,6.6055779,0-3.2245859,3.3816365-9.3615901,6.4985858-9.3615901Z"/>
  </g>
  <g>
    <path class="st2" d="M297.1669998,50.9217154c-3.3919534,3.9290628-8.3548443,7.070938-13.8548447,8.7673444l-2.6468752-3.473594c5.6658598-1.3234376,10.5050007-3.7228128,14.1848448-6.9901567h-13.7302353v-3.061094h16.0471105v-2.2326564h-12.1180477v-2.7293752h12.1180477v-2.1501564h-13.6898447v-2.896094h8.8507038c-.4958594-1.2409376-1.0750782-2.3151564-1.819297-3.432344h-8.9340631v-2.9768752h6.2450786c-.9100782-2.1931252-1.860547-3.7228128-3.0189846-5.0875004l3.6394534-1.3646876c1.0750782,1.3646876,2.1510158,3.143594,3.0602346,5.0875004l-3.432344,1.3646876h5.6246098v-7.1139068h3.7219534v7.1139068h3.5157034v-7.1139068h3.7219534v7.1139068h5.2525004l-3.349844-1.1171876c1.1584376-1.8614064,2.2326564-4.0115628,2.8531252-5.6667192l4.0115628,1.2409376c-.9917188,2.0676564-2.2326564,4.1782815-3.2252346,5.5429691h6.8655474v2.9768752h-9.3053132c-.5379688,1.2409376-1.1584376,2.3993752-1.7789064,3.432344h9.1815631v2.896094h-13.9785947v2.1501564h12.4067978v2.7293752h-12.4067978v2.2326564h16.3358605v3.061094h-13.6477353c3.7632034,2.7706252,8.5610944,4.8382816,13.8960947,5.9967192l-2.6881252,3.6815628c-5.6254691-1.8614064-10.4225007-4.6732816-13.8960947-8.1898443v9.1403131h-4.0115628v-8.9323444ZM294.6851246,32.7235891c.5792188.9934376.9925782,1.8614064,1.613047,3.432344h5.5421098c.6204688-.9917188,1.1575782-1.9851564,1.736797-3.432344h-8.8919538Z"/>
    <path class="st2" d="M357.5509885,29.8704639c-.7854688,2.3151564-1.901797,4.2178128-3.5157034,5.9967192,2.0685158,1.2409376,4.5907816,2.1914064,7.6106255,2.8943752l-2.0264064,3.4753127c-3.019844-.9521876-5.9142192-2.3168752-8.2723443-3.8878128-2.1501564,1.7359376-4.8795316,3.1831252-7.7747662,4.0940628l-2.1510158-2.7293752c-.7854688,3.514844-1.5709376,6.2029692-2.4397658,8.2706256l-3.308594-1.1996876c.9100782-1.9439064,1.654297-4.2178128,2.0264064-6.2442192h-2.4810158v16.1287511c0,2.4406252-.7854688,3.184844-3.308594,3.184844-1.2409376,0-2.7293752-.12375-3.9290628-.37125l-.6617188-3.8878128c1.1163282.28875,2.1501564.45375,3.0189846.45375.9100782,0,1.2409376-.28875,1.2409376-1.1979688v-8.7690631c-1.654297,3.349844-3.8053128,6.410938-6.2038286,8.7278131l-1.9026564-3.7228128c3.226094-2.6468752,5.9142192-6.2459379,7.8168756-10.5462507h-7.0314067v-3.514844h9.2228132c-1.819297-2.3581252-4.2590628-4.7575003-6.4100786-6.3284379l2.7302346-1.9851564.12375.0825c.2475.2492188.5379688.4554688.7854688.6617188.2483594.2079688.5379688.4142188.8267188.6617188l.7863282.7029688.2483594.2079688c1.4059376-1.1996876,2.4810158-2.2756252,3.267344-3.308594h-10.2987507v-3.4753127h13.6073447l2.1914064,2.1518752c-2.1089064,2.6056252-4.0115628,4.6320316-6.4513286,6.823438l.4958403.4967188c.4967379.495.7854879.7442188,1.2822067,1.2821876l-2.6056252,2.0264064h5.5833598l2.0264064,1.4884376-.165.8267188c2.5222658-.5792188,4.921641-1.6946876,6.9892974-3.184844-1.0759376-.9504688-2.2747658-2.2326564-3.143594-3.473594-.7029688,1.0759376-1.736797,2.3581252-2.6881252,3.349844l-2.7293752-2.7293752c2.7293752-2.8118752,4.8382816-6.740938,5.7492192-10.7525008l3.8869534.9504688c-.4133594,1.4059376-.6617188,2.0264064-1.0338282,2.937344h12.0759384v3.432344h-3.0602346ZM360.0741136,44.5932775c-.1246094,5.7492192-.5379688,10.3812507-1.0338282,12.1584384-.5792188,1.9851564-1.6964064,2.7310939-4.0940628,2.7310939-1.2821876,0-3.102344-.1254688-4.5082816-.3317188l-.6617188-3.8053128c1.2409376.2904688,2.7706252.4967188,3.9703128.4967188,1.1575782,0,1.5296876-.33,1.778047-1.4884376.2483594-1.2821876.4133594-3.349844.5792188-6.2459379h-4.715391c-.7442188,5.5429691-4.4249222,9.7607819-10.4216414,11.8696883l-2.6056252-3.1831252c4.921641-1.3664063,8.147735-4.3432816,9.1403131-8.4785943h-6.575938v-3.5165627h6.9067974v-3.638594h3.8878128v3.432344h8.353985ZM347.3355971,29.8704639c.8688282,1.3646876,2.2747658,2.8531252,3.7228128,3.9703128,1.2409376-1.3646876,2.0264064-2.6056252,2.5643752-3.9703128h-6.2871879Z"/>
    <path class="st2" d="M395.8920068,47.3226527c-.8679688,2.1501564-2.2326564,4.1782815-3.8465628,5.8317192,4.4670316,1.3234376,6.9901567,2.1089064,11.2904695,3.556094l-3.1427346,3.3928127c-3.9703128-1.6139064-6.8655474-2.6898439-11.4150789-4.2195315-3.7632034,2.2756252-9.8836726,3.7640628-17.7417981,4.3020316l-2.0676564-3.5990628c5.9967192-.0825,11.0833602-.8267188,15.0536729-2.1914064-2.8531252-.8679688-5.3350004-1.5709376-9.3465632-2.6468752,1.2821876-1.5709376,2.3572658-3.061094,3.226094-4.4257816h-9.4299225v-3.349844h11.4975789c.6617188-1.0329688,1.2409376-2.1089064,1.8614064-3.349844l2.1914064.4967188v-5.9554692c-3.8044534,3.679844-8.1468756,6.2029692-13.8960947,8.0643756l-2.3985158-3.143594c4.921641-1.1567188,9.1394538-3.1418752,12.8210165-5.9142192h-11.8284383v-3.267344h15.3020323v-2.7293752c-3.1014846.2492188-7.7335162.4554688-11.5379696.5379688l-1.7376564-3.226094c10.1328913-.165,18.7764857-.8679688,25.8482831-2.1914064l3.143594,3.184844c-3.349844.5379688-7.3614068,1.0329688-11.6634383,1.4059376v3.0181252h15.5512511v3.267344h-11.5809383c3.349844,2.1518752,7.8168756,3.9703128,12.7797665,5.2112504l-2.6468752,3.267344c-5.5421098-1.7359376-10.008282-4.1765628-14.1032041-7.7343755v6.9901567h-2.5222658q-.1246094.2475-.2896094.5379688c-.3721094.7854688-.4967188.9917188-.8267188,1.5296876h19.4373451v3.349844h-7.9818756ZM382.4926308,47.3226527c-.5792391.9934376-1.2821876,2.0264064-1.9851564,2.937344l.5792188.12375c2.2326564.5379688,3.308594.7854688,4.0528128.9504688.8267188.2079688,1.3646876.3317188,2.7706252.7029688,1.4884376-1.1979688,2.8531252-2.9768752,3.5569534-4.7145316h-8.9744538Z"/>
    <path class="st2" d="M411.2387266,29.4974952h15.5916417v3.349844h-15.5916417v-3.349844ZM412.4384142,45.9579651h13.1922666v13.4835947h-3.6807034v-1.4901564h-5.8317192v1.9026564h-3.679844v-13.8960947ZM413.223883,23.9974948h11.5800789v3.226094h-11.5800789v-3.226094ZM413.223883,35.1229643h11.5800789v3.1006252h-11.5800789v-3.1006252ZM413.223883,40.4992147h11.5800789v3.102344h-11.5800789v-3.102344ZM421.9499774,54.7253094v-5.6650004h-5.8317192v5.6650004h5.8317192ZM436.7561503,53.4860906c0,1.4471876.5371094,1.7359376,3.1014846,1.7359376,2.5231252,0,3.308594-.28875,3.6394534-1.2409376.2483594-.7854688.4546094-2.7706252.5379688-5.5000004l3.9290628,1.1171876c-.2071094,4.8382816-.6204688,7.070938-1.489297,8.1056256-.8679688,1.0759376-2.9356252,1.4884376-7.3201568,1.4884376-5.211272,0-6.3275786-.6617188-6.3275786-3.638594v-12.7806259l-6.575938.7442188-.3308594-3.844844,6.9067974-.7442188v-8.0248443c-2.0676564.4142188-3.5157034.6617188-4.6320316.8284376l-1.613047-3.5578128c6.2863286-.9092188,11.6213289-2.3976564,16.4192199-4.4653128l2.7293752,3.432344c-2.4818752.9917188-5.6246098,1.9851564-8.9744538,2.8531252v8.4785943l10.8771101-1.1996876.2475,3.8465628-11.1246102,1.2409376v11.1254695Z"/>
    <path class="st2" d="M467.2390431,28.5882764c.6617188,1.1584376.9925782,1.8614064,1.5296876,3.102344l-3.556094,1.4471876c-.7029688-2.1501564-1.0759376-3.143594-1.7789064-4.5495316h-2.3151564c-1.1584376,1.8614064-2.5231252,3.556094-4.0115628,4.8795316l-2.6889846-2.5231252c2.6056252-2.3151564,4.5495316-5.2507816,5.5833598-8.5593756l3.8878128.7442188c-.4554688,1.1567188-.6617188,1.6121876-1.0759376,2.3564064h9.5545319v3.102344h-5.1287504ZM455.9073235,33.6757767h14.9299229v-1.9851564h3.267344l-2.6889846-1.7376564c1.9026564-1.9439064,3.3919534-4.5082816,4.3845316-7.5676568l3.7632034.6617188-.04125.165c-.2896094.8267188-.4958594,1.4059376-.8688282,2.2739064h12.4076571v3.102344h-7.3614068c.7854688,1.1171876,1.2409376,1.8614064,1.819297,3.0181252l-3.8044534,1.4901564c-.3729688-1.3234376-1.0346876-2.6881252-2.0676564-4.5082816h-2.5643752c-.7442188,1.2409376-1.4059376,2.1914064-2.1089064,3.102344v1.9851564h15.1774229v7.5676568h-4.0115628v-4.5907816h-26.2203925v4.5907816h-4.0115628v-7.5676568ZM461.6969333,38.8028083h22.5817985v8.2310943h-18.5281263v2.4818752h20.5957827v10.338282h-4.0528128v-1.6121876h-16.5429699v1.6121876h-4.0536722v-21.0512515ZM480.2250596,44.1378087v-2.4389064h-14.4744541v2.4389064h14.4744541ZM482.2935754,55.2220282v-2.8118752h-16.5429699v2.8118752h16.5429699Z"/>
    <path class="st2" d="M506.3251396,47.7781215c1.5296876-.5792188,3.2252346-1.3234376,4.3003128-1.8201564l.3729688,3.6403128c-3.5569534,1.8596876-8.147735,3.803594-12.2426571,5.1682816l-1.4471876-3.9703128c1.8201564-.495,3.143594-.9092188,5.2525004-1.6534376v-9.0578131h-4.0528128v-3.514844h4.0528128v-7.1139068h-4.5907816v-3.597344h12.6551571v3.597344h-4.3003128v7.1139068h3.7632034v3.514844h-3.7632034v7.6931255ZM509.2195148,54.8095282h11.2904695v-4.0957815h-8.7673444v-3.432344h8.7673444v-3.8053128h-8.1056256v-18.7756263h20.3061733v18.7756263h-8.312735v3.8053128h9.0157038v3.432344h-9.0157038v4.0957815h10.6287508v3.514844h-25.8070331v-3.514844ZM520.6758437,32.3935891v-4.3432816h-4.5907816v4.3432816h4.5907816ZM520.6758437,40.1262459v-4.5495316h-4.5907816v4.5495316h4.5907816ZM529.0298287,32.3935891v-4.3432816h-4.7970316v4.3432816h4.7970316ZM529.0298287,40.1262459v-4.5495316h-4.7970316v4.5495316h4.7970316Z"/>
  </g>
</svg>